ISO-10303-21;
HEADER;
FILE_DESCRIPTION (( 'STEP AP214' ),
    '1' );
FILE_NAME ('1031.STEP',
    '2007-12-17T15:27:30',
    ( 'Richard Maletta' ),
    ( '' ),
    'SwSTEP 2.0',
    'SolidWorks 2007',
    '' );
FILE_SCHEMA (( 'AUTOMOTIVE_DESIGN' ));
ENDSEC;

DATA;
#1 = ORIENTED_EDGE ( 'NONE', *, *, #202, .F. ) ;
#2 = ORIENTED_EDGE ( 'NONE', *, *, #151, .T. ) ;
#3 = EDGE_LOOP ( 'NONE', ( #4, #5 ) ) ;
#4 = ORIENTED_EDGE ( 'NONE', *, *, #42, .F. ) ;
#5 = ORIENTED_EDGE ( 'NONE', *, *, #6, .F. ) ;
#6 = EDGE_CURVE ( 'NONE', #127, #126, #456, .T. ) ;
#7 = ADVANCED_FACE ( 'NONE', ( #404, #403 ), #402, .F. ) ;
#8 = EDGE_LOOP ( 'NONE', ( #155, #150, #152, #159, #162, #165, #168, #171, #100, #61, #74, #77, #32, #35 ) ) ;
#9 = VERTEX_POINT ( 'NONE', #301 ) ;
#10 = EDGE_CURVE ( 'NONE', #117, #119, #300, .T. ) ;
#11 = ORIENTED_EDGE ( 'NONE', *, *, #12, .T. ) ;
#12 = EDGE_CURVE ( 'NONE', #119, #13, #296, .T. ) ;
#13 = VERTEX_POINT ( 'NONE', #291 ) ;
#14 = ORIENTED_EDGE ( 'NONE', *, *, #15, .T. ) ;
#15 = EDGE_CURVE ( 'NONE', #13, #16, #290, .T. ) ;
#16 = VERTEX_POINT ( 'NONE', #286 ) ;
#17 = ORIENTED_EDGE ( 'NONE', *, *, #18, .T. ) ;
#18 = EDGE_CURVE ( 'NONE', #16, #19, #285, .T. ) ;
#19 = VERTEX_POINT ( 'NONE', #367 ) ;
#20 = ORIENTED_EDGE ( 'NONE', *, *, #21, .T. ) ;
#21 = EDGE_CURVE ( 'NONE', #19, #22, #366, .T. ) ;
#22 = VERTEX_POINT ( 'NONE', #362 ) ;
#23 = ORIENTED_EDGE ( 'NONE', *, *, #24, .T. ) ;
#24 = EDGE_CURVE ( 'NONE', #22, #138, #361, .T. ) ;
#25 = ADVANCED_FACE ( 'NONE', ( #357 ), #356, .F. ) ;
#26 = EDGE_LOOP ( 'NONE', ( #27, #28, #30, #46 ) ) ;
#27 = ORIENTED_EDGE ( 'NONE', *, *, #44, .T. ) ;
#28 = ORIENTED_EDGE ( 'NONE', *, *, #29, .F. ) ;
#29 = EDGE_CURVE ( 'NONE', #117, #34, #351, .T. ) ;
#30 = ORIENTED_EDGE ( 'NONE', *, *, #116, .F. ) ;
#31 = EDGE_CURVE ( 'NONE', #78, #76, #347, .T. ) ;
#32 = ORIENTED_EDGE ( 'NONE', *, *, #33, .F. ) ;
#33 = EDGE_CURVE ( 'NONE', #34, #78, #342, .T. ) ;
#34 = VERTEX_POINT ( 'NONE', #337 ) ;
#35 = ORIENTED_EDGE ( 'NONE', *, *, #44, .F. ) ;
#36 = EDGE_CURVE ( 'NONE', #43, #170, #338, .T. ) ;
#37 = ORIENTED_EDGE ( 'NONE', *, *, #197, .F. ) ;
#38 = MANIFOLD_SOLID_BREP ( 'NONE', #192 ) ;
#39 = ADVANCED_FACE ( 'NONE', ( #451 ), #448, .F. ) ;
#40 = EDGE_LOOP ( 'NONE', ( #41, #128, #131, #134 ) ) ;
#41 = ORIENTED_EDGE ( 'NONE', *, *, #42, .T. ) ;
#42 = EDGE_CURVE ( 'NONE', #126, #127, #444, .T. ) ;
#43 = VERTEX_POINT ( 'NONE', #440 ) ;
#44 = EDGE_CURVE ( 'NONE', #157, #34, #439, .T. ) ;
#45 = EDGE_LOOP ( 'NONE', ( #66, #67 ) ) ;
#46 = ORIENTED_EDGE ( 'NONE', *, *, #73, .T. ) ;
#47 = ADVANCED_FACE ( 'NONE', ( #435 ), #281, .F. ) ;
#48 = EDGE_LOOP ( 'NONE', ( #49, #102, #104, #105 ) ) ;
#49 = ORIENTED_EDGE ( 'NONE', *, *, #33, .T. ) ;
#50 = EDGE_CURVE ( 'NONE', #51, #99, #276, .T. ) ;
#51 = VERTEX_POINT ( 'NONE', #272 ) ;
#52 = ORIENTED_EDGE ( 'NONE', *, *, #12, .F. ) ;
#53 = ORIENTED_EDGE ( 'NONE', *, *, #103, .T. ) ;
#54 = ADVANCED_FACE ( 'NONE', ( #271 ), #270, .F. ) ;
#55 = EDGE_LOOP ( 'NONE', ( #56, #57, #59, #60 ) ) ;
#56 = ORIENTED_EDGE ( 'NONE', *, *, #75, .T. ) ;
#57 = ORIENTED_EDGE ( 'NONE', *, *, #58, .F. ) ;
#58 = EDGE_CURVE ( 'NONE', #16, #51, #434, .T. ) ;
#59 = ORIENTED_EDGE ( 'NONE', *, *, #15, .F. ) ;
#60 = ORIENTED_EDGE ( 'NONE', *, *, #110, .T. ) ;
#61 = ORIENTED_EDGE ( 'NONE', *, *, #50, .F. ) ;
#62 = ORIENTED_EDGE ( 'NONE', *, *, #169, .T. ) ;
#63 = ORIENTED_EDGE ( 'NONE', *, *, #64, .F. ) ;
#64 = EDGE_CURVE ( 'NONE', #141, #167, #430, .T. ) ;
#65 = ORIENTED_EDGE ( 'NONE', *, *, #140, .F. ) ;
#66 = ORIENTED_EDGE ( 'NONE', *, *, #132, .T. ) ;
#67 = ORIENTED_EDGE ( 'NONE', *, *, #68, .T. ) ;
#68 = EDGE_CURVE ( 'NONE', #130, #133, #426, .T. ) ;
#69 = ADVANCED_FACE ( 'NONE', ( #421 ), #420, .F. ) ;
#70 = EDGE_LOOP ( 'NONE', ( #71, #72, #200, #201 ) ) ;
#71 = ORIENTED_EDGE ( 'NONE', *, *, #156, .T. ) ;
#72 = ORIENTED_EDGE ( 'NONE', *, *, #73, .F. ) ;
#73 = EDGE_CURVE ( 'NONE', #114, #157, #415, .T. ) ;
#74 = ORIENTED_EDGE ( 'NONE', *, *, #75, .F. ) ;
#75 = EDGE_CURVE ( 'NONE', #76, #51, #411, .T. ) ;
#76 = VERTEX_POINT ( 'NONE', #336 ) ;
#77 = ORIENTED_EDGE ( 'NONE', *, *, #31, .F. ) ;
#78 = VERTEX_POINT ( 'NONE', #335 ) ;
#79 = ORIENTED_EDGE ( 'NONE', *, *, #94, .T. ) ;
#80 = ADVANCED_FACE ( 'NONE', ( #334 ), #333, .F. ) ;
#81 = EDGE_LOOP ( 'NONE', ( #82, #83, #204, #205 ) ) ;
#82 = ORIENTED_EDGE ( 'NONE', *, *, #166, .T. ) ;
#83 = ORIENTED_EDGE ( 'NONE', *, *, #203, .F. ) ;
#84 = EDGE_LOOP ( 'NONE', ( #85, #86, #88, #89 ) ) ;
#85 = ORIENTED_EDGE ( 'NONE', *, *, #101, .T. ) ;
#86 = ORIENTED_EDGE ( 'NONE', *, *, #87, .F. ) ;
#87 = EDGE_CURVE ( 'NONE', #22, #43, #328, .T. ) ;
#88 = ORIENTED_EDGE ( 'NONE', *, *, #21, .F. ) ;
#89 = ORIENTED_EDGE ( 'NONE', *, *, #213, .T. ) ;
#90 = ADVANCED_FACE ( 'NONE', ( #324 ), #323, .F. ) ;
#91 = EDGE_LOOP ( 'NONE', ( #92, #93, #95, #96 ) ) ;
#92 = ORIENTED_EDGE ( 'NONE', *, *, #36, .T. ) ;
#93 = ORIENTED_EDGE ( 'NONE', *, *, #94, .F. ) ;
#94 = EDGE_CURVE ( 'NONE', #138, #170, #318, .T. ) ;
#95 = ORIENTED_EDGE ( 'NONE', *, *, #24, .F. ) ;
#96 = ORIENTED_EDGE ( 'NONE', *, *, #87, .T. ) ;
#97 = ADVANCED_FACE ( 'NONE', ( #314 ), #313, .F. ) ;
#98 = EDGE_LOOP ( 'NONE', ( #62, #63, #65, #79 ) ) ;
#99 = VERTEX_POINT ( 'NONE', #308 ) ;
#100 = ORIENTED_EDGE ( 'NONE', *, *, #101, .F. ) ;
#101 = EDGE_CURVE ( 'NONE', #99, #43, #307, .T. ) ;
#102 = ORIENTED_EDGE ( 'NONE', *, *, #103, .F. ) ;
#103 = EDGE_CURVE ( 'NONE', #119, #78, #398, .T. ) ;
#104 = ORIENTED_EDGE ( 'NONE', *, *, #10, .F. ) ;
#105 = ORIENTED_EDGE ( 'NONE', *, *, #29, .T. ) ;
#106 = ADVANCED_FACE ( 'NONE', ( #394 ), #392, .F. ) ;
#107 = EDGE_LOOP ( 'NONE', ( #108, #109, #52, #53 ) ) ;
#108 = ORIENTED_EDGE ( 'NONE', *, *, #31, .T. ) ;
#109 = ORIENTED_EDGE ( 'NONE', *, *, #110, .F. ) ;
#110 = EDGE_CURVE ( 'NONE', #13, #76, #393, .T. ) ;
#111 = ORIENTED_EDGE ( 'NONE', *, *, #112, .T. ) ;
#112 = EDGE_CURVE ( 'NONE', #113, #114, #384, .T. ) ;
#113 = VERTEX_POINT ( 'NONE', #380 ) ;
#114 = VERTEX_POINT ( 'NONE', #379 ) ;
#115 = ORIENTED_EDGE ( 'NONE', *, *, #116, .T. ) ;
#116 = EDGE_CURVE ( 'NONE', #114, #117, #378, .T. ) ;
#117 = VERTEX_POINT ( 'NONE', #374 ) ;
#118 = ORIENTED_EDGE ( 'NONE', *, *, #10, .T. ) ;
#119 = VERTEX_POINT ( 'NONE', #373 ) ;
#120 = EDGE_CURVE ( 'NONE', #147, #149, #371, .T. ) ;
#121 = ORIENTED_EDGE ( 'NONE', *, *, #122, .T. ) ;
#122 = EDGE_CURVE ( 'NONE', #149, #123, #372, .T. ) ;
#123 = VERTEX_POINT ( 'NONE', #245 ) ;
#124 = ORIENTED_EDGE ( 'NONE', *, *, #125, .T. ) ;
#125 = EDGE_CURVE ( 'NONE', #123, #113, #244, .T. ) ;
#126 = VERTEX_POINT ( 'NONE', #240 ) ;
#127 = VERTEX_POINT ( 'NONE', #239 ) ;
#128 = ORIENTED_EDGE ( 'NONE', *, *, #129, .T. ) ;
#129 = EDGE_CURVE ( 'NONE', #127, #130, #238, .T. ) ;
#130 = VERTEX_POINT ( 'NONE', #234 ) ;
#131 = ORIENTED_EDGE ( 'NONE', *, *, #132, .F. ) ;
#132 = EDGE_CURVE ( 'NONE', #133, #130, #233, .T. ) ;
#133 = VERTEX_POINT ( 'NONE', #228 ) ;
#134 = ORIENTED_EDGE ( 'NONE', *, *, #135, .F. ) ;
#135 = EDGE_CURVE ( 'NONE', #126, #133, #227, .T. ) ;
#136 = ADVANCED_FACE ( 'NONE', ( #223, #222 ), #221, .T. ) ;
#137 = EDGE_LOOP ( 'NONE', ( #111, #115, #118, #11, #14, #17, #20, #23, #139, #142, #145, #148, #121, #124 ) ) ;
#138 = VERTEX_POINT ( 'NONE', #549 ) ;
#139 = ORIENTED_EDGE ( 'NONE', *, *, #140, .T. ) ;
#140 = EDGE_CURVE ( 'NONE', #138, #141, #577, .T. ) ;
#141 = VERTEX_POINT ( 'NONE', #575 ) ;
#142 = ORIENTED_EDGE ( 'NONE', *, *, #143, .T. ) ;
#143 = EDGE_CURVE ( 'NONE', #141, #144, #580, .T. ) ;
#144 = VERTEX_POINT ( 'NONE', #551 ) ;
#145 = ORIENTED_EDGE ( 'NONE', *, *, #146, .T. ) ;
#146 = EDGE_CURVE ( 'NONE', #144, #147, #559, .T. ) ;
#147 = VERTEX_POINT ( 'NONE', #566 ) ;
#148 = ORIENTED_EDGE ( 'NONE', *, *, #120, .T. ) ;
#149 = VERTEX_POINT ( 'NONE', #565 ) ;
#150 = ORIENTED_EDGE ( 'NONE', *, *, #151, .F. ) ;
#151 = EDGE_CURVE ( 'NONE', #158, #9, #511, .T. ) ;
#152 = ORIENTED_EDGE ( 'NONE', *, *, #153, .F. ) ;
#153 = EDGE_CURVE ( 'NONE', #154, #158, #582, .T. ) ;
#154 = VERTEX_POINT ( 'NONE', #554 ) ;
#155 = ORIENTED_EDGE ( 'NONE', *, *, #156, .F. ) ;
#156 = EDGE_CURVE ( 'NONE', #9, #157, #553, .T. ) ;
#157 = VERTEX_POINT ( 'NONE', #516 ) ;
#158 = VERTEX_POINT ( 'NONE', #515 ) ;
#159 = ORIENTED_EDGE ( 'NONE', *, *, #160, .F. ) ;
#160 = EDGE_CURVE ( 'NONE', #161, #154, #514, .T. ) ;
#161 = VERTEX_POINT ( 'NONE', #522 ) ;
#162 = ORIENTED_EDGE ( 'NONE', *, *, #163, .F. ) ;
#163 = EDGE_CURVE ( 'NONE', #164, #161, #521, .T. ) ;
#164 = VERTEX_POINT ( 'NONE', #517 ) ;
#165 = ORIENTED_EDGE ( 'NONE', *, *, #166, .F. ) ;
#166 = EDGE_CURVE ( 'NONE', #167, #164, #564, .T. ) ;
#167 = VERTEX_POINT ( 'NONE', #560 ) ;
#168 = ORIENTED_EDGE ( 'NONE', *, *, #169, .F. ) ;
#169 = EDGE_CURVE ( 'NONE', #170, #167, #546, .T. ) ;
#170 = VERTEX_POINT ( 'NONE', #542 ) ;
#171 = ORIENTED_EDGE ( 'NONE', *, *, #36, .F. ) ;
#172 = ORIENTED_EDGE ( 'NONE', *, *, #125, .F. ) ;
#173 = ORIENTED_EDGE ( 'NONE', *, *, #181, .T. ) ;
#174 = ADVANCED_FACE ( 'NONE', ( #541 ), #540, .F. ) ;
#175 = EDGE_LOOP ( 'NONE', ( #188, #189, #190, #191 ) ) ;
#176 = EDGE_CURVE ( 'NONE', #149, #154, #572, .T. ) ;
#177 = ADVANCED_FACE ( 'NONE', ( #568 ), #590, .F. ) ;
#178 = EDGE_LOOP ( 'NONE', ( #179, #180, #182, #183 ) ) ;
#179 = ORIENTED_EDGE ( 'NONE', *, *, #153, .T. ) ;
#180 = ORIENTED_EDGE ( 'NONE', *, *, #181, .F. ) ;
#181 = EDGE_CURVE ( 'NONE', #123, #158, #585, .T. ) ;
#182 = ORIENTED_EDGE ( 'NONE', *, *, #122, .F. ) ;
#183 = ORIENTED_EDGE ( 'NONE', *, *, #176, .T. ) ;
#184 = ADVANCED_FACE ( 'NONE', ( #486 ), #485, .F. ) ;
#185 = EDGE_LOOP ( 'NONE', ( #2, #1, #172, #173 ) ) ;
#186 = ORIENTED_EDGE ( 'NONE', *, *, #120, .F. ) ;
#187 = ORIENTED_EDGE ( 'NONE', *, *, #197, .T. ) ;
#188 = ORIENTED_EDGE ( 'NONE', *, *, #129, .F. ) ;
#189 = ORIENTED_EDGE ( 'NONE', *, *, #6, .T. ) ;
#190 = ORIENTED_EDGE ( 'NONE', *, *, #135, .T. ) ;
#191 = ORIENTED_EDGE ( 'NONE', *, *, #68, .F. ) ;
#192 = CLOSED_SHELL ( 'NONE', ( #39, #136, #7, #69, #25, #47, #106, #54, #209, #216, #90, #97, #80, #206, #196, #177, #184, #174 ) ) ;
#193 = ORIENTED_EDGE ( 'NONE', *, *, #160, .T. ) ;
#194 = ORIENTED_EDGE ( 'NONE', *, *, #176, .F. ) ;
#195 = ORIENTED_EDGE ( 'NONE', *, *, #203, .T. ) ;
#196 = ADVANCED_FACE ( 'NONE', ( #507 ), #506, .F. ) ;
#197 = EDGE_CURVE ( 'NONE', #147, #161, #501, .T. ) ;
#198 = EDGE_LOOP ( 'NONE', ( #193, #194, #186, #187 ) ) ;
#199 = ORIENTED_EDGE ( 'NONE', *, *, #146, .F. ) ;
#200 = ORIENTED_EDGE ( 'NONE', *, *, #112, .F. ) ;
#201 = ORIENTED_EDGE ( 'NONE', *, *, #202, .T. ) ;
#202 = EDGE_CURVE ( 'NONE', #113, #9, #497, .T. ) ;
#203 = EDGE_CURVE ( 'NONE', #144, #164, #493, .T. ) ;
#204 = ORIENTED_EDGE ( 'NONE', *, *, #143, .F. ) ;
#205 = ORIENTED_EDGE ( 'NONE', *, *, #64, .T. ) ;
#206 = ADVANCED_FACE ( 'NONE', ( #489 ), #488, .F. ) ;
#207 = EDGE_LOOP ( 'NONE', ( #208, #37, #199, #195 ) ) ;
#208 = ORIENTED_EDGE ( 'NONE', *, *, #163, .T. ) ;
#209 = ADVANCED_FACE ( 'NONE', ( #464 ), #463, .F. ) ;
#210 = EDGE_LOOP ( 'NONE', ( #211, #212, #214, #215 ) ) ;
#211 = ORIENTED_EDGE ( 'NONE', *, *, #50, .T. ) ;
#212 = ORIENTED_EDGE ( 'NONE', *, *, #213, .F. ) ;
#213 = EDGE_CURVE ( 'NONE', #19, #99, #458, .T. ) ;
#214 = ORIENTED_EDGE ( 'NONE', *, *, #18, .F. ) ;
#215 = ORIENTED_EDGE ( 'NONE', *, *, #58, .T. ) ;
#216 = ADVANCED_FACE ( 'NONE', ( #533 ), #532, .F. ) ;
#217 = DIRECTION ( 'NONE',  ( 1.000000000000000000, 0.0000000000000000000, 0.0000000000000000000 ) ) ;
#218 = DIRECTION ( 'NONE',  ( 0.0000000000000000000, 0.0000000000000000000, 1.000000000000000000 ) ) ;
#219 = CARTESIAN_POINT ( 'NONE',  ( 0.0000000000000000000, 0.2580000000000000100, 0.02000000000000000000 ) ) ;
#220 = AXIS2_PLACEMENT_3D ( 'NONE', #219, #218, #217 ) ;
#221 = PLANE ( 'NONE',  #220 ) ;
#222 = FACE_BOUND ( 'NONE', #3, .T. ) ;
#223 = FACE_OUTER_BOUND ( 'NONE', #137, .T. ) ;
#224 = DIRECTION ( 'NONE',  ( 0.0000000000000000000, 0.0000000000000000000, -1.000000000000000000 ) ) ;
#225 = VECTOR ( 'NONE', #224, 39.37007874015748100 ) ;
#226 = CARTESIAN_POINT ( 'NONE',  ( -0.01600000000000000400, 0.1999999999999999800, 0.02000000000000000000 ) ) ;
#227 = LINE ( 'NONE', #226, #225 ) ;
#228 = CARTESIAN_POINT ( 'NONE',  ( -0.01600000000000000400, 0.1999999999999999800, 0.0000000000000000000 ) ) ;
#229 = DIRECTION ( 'NONE',  ( 1.000000000000000000, 0.0000000000000000000, 0.0000000000000000000 ) ) ;
#230 = DIRECTION ( 'NONE',  ( 0.0000000000000000000, 0.0000000000000000000, 1.000000000000000000 ) ) ;
#231 = CARTESIAN_POINT ( 'NONE',  ( 0.0000000000000000000, 0.1999999999999999800, 0.0000000000000000000 ) ) ;
#232 = AXIS2_PLACEMENT_3D ( 'NONE', #231, #230, #229 ) ;
#233 = CIRCLE ( 'NONE', #232, 0.01600000000000000400 ) ;
#234 = CARTESIAN_POINT ( 'NONE',  ( 0.01600000000000000400, 0.1999999999999999800, 0.0000000000000000000 ) ) ;
#235 = DIRECTION ( 'NONE',  ( 0.0000000000000000000, 0.0000000000000000000, -1.000000000000000000 ) ) ;
#236 = VECTOR ( 'NONE', #235, 39.37007874015748100 ) ;
#237 = CARTESIAN_POINT ( 'NONE',  ( 0.01600000000000000400, 0.1999999999999999800, 0.02000000000000000000 ) ) ;
#238 = LINE ( 'NONE', #237, #236 ) ;
#239 = CARTESIAN_POINT ( 'NONE',  ( 0.01600000000000000400, 0.1999999999999999800, 0.02000000000000000000 ) ) ;
#240 = CARTESIAN_POINT ( 'NONE',  ( -0.01600000000000000400, 0.1999999999999999800, 0.02000000000000000000 ) ) ;
#241 = DIRECTION ( 'NONE',  ( 1.000000000000000000, 0.0000000000000000000, 0.0000000000000000000 ) ) ;
#242 = VECTOR ( 'NONE', #241, 39.37007874015748100 ) ;
#243 = CARTESIAN_POINT ( 'NONE',  ( 0.03750000000000001200, 0.1560000000000000000, 0.02000000000000000000 ) ) ;
#244 = LINE ( 'NONE', #243, #242 ) ;
#245 = CARTESIAN_POINT ( 'NONE',  ( 0.01750000000000001600, 0.1560000000000000000, 0.02000000000000000000 ) ) ;
#246 = DIRECTION ( 'NONE',  ( 1.333910153156378900E-016, 1.000000000000000000, 0.0000000000000000000 ) ) ;
#247 = VECTOR ( 'NONE', #246, 39.37007874015748100 ) ;
#248 = CARTESIAN_POINT ( 'NONE',  ( 0.01750000000000001600, 0.1560000000000000000, 0.02000000000000000000 ) ) ;
#249 =( CONVERSION_BASED_UNIT ( 'INCH', #250 ) LENGTH_UNIT ( ) NAMED_UNIT ( #251 ) );
#250 = LENGTH_MEASURE_WITH_UNIT ( LENGTH_MEASURE( 0.02539999999999999900 ), #252 );
#251 = DIMENSIONAL_EXPONENTS ( 1.000000000000000000, 0.0000000000000000000, 0.0000000000000000000, 0.0000000000000000000, 0.0000000000000000000, 0.0000000000000000000, 0.0000000000000000000 ) ;
#252 =( LENGTH_UNIT ( ) NAMED_UNIT ( * ) SI_UNIT ( $, .METRE. ) );
#253 = MECHANICAL_DESIGN_GEOMETRIC_PRESENTATION_REPRESENTATION (  '', ( #255 ), #452 ) ;
#254 = PRESENTATION_LAYER_ASSIGNMENT (  '', '', ( #255 ) ) ;
#255 = STYLED_ITEM ( 'NONE', ( #256 ), #38 ) ;
#256 = PRESENTATION_STYLE_ASSIGNMENT (( #257 ) ) ;
#257 = SURFACE_STYLE_USAGE ( .BOTH. , #258 ) ;
#258 = SURFACE_SIDE_STYLE ('',( #259 ) ) ;
#259 = SURFACE_STYLE_FILL_AREA ( #260 ) ;
#260 = FILL_AREA_STYLE ('',( #265 ) ) ;
#261 = COLOUR_RGB ( '',0.7960784313725489700, 0.8235294117647058400, 0.9372549019607843100 ) ;
#262 = DIRECTION ( 'NONE',  ( 1.000000000000000000, 0.0000000000000000000, 0.0000000000000000000 ) ) ;
#263 = VECTOR ( 'NONE', #262, 39.37007874015748100 ) ;
#264 = CARTESIAN_POINT ( 'NONE',  ( -0.03750000000000001200, 0.1560000000000000000, 0.0000000000000000000 ) ) ;
#265 = FILL_AREA_STYLE_COLOUR ( '', #261 ) ;
#266 = DIRECTION ( 'NONE',  ( -1.778546870875171200E-016, -1.000000000000000000, 0.0000000000000000000 ) ) ;
#267 = DIRECTION ( 'NONE',  ( -1.000000000000000000, 1.778546870875171200E-016, 0.0000000000000000000 ) ) ;
#268 = CARTESIAN_POINT ( 'NONE',  ( -0.01600000000000000400, 0.2580000000000000100, 0.02000000000000000000 ) ) ;
#269 = AXIS2_PLACEMENT_3D ( 'NONE', #268, #267, #266 ) ;
#270 = PLANE ( 'NONE',  #269 ) ;
#271 = FACE_OUTER_BOUND ( 'NONE', #55, .T. ) ;
#272 = CARTESIAN_POINT ( 'NONE',  ( -0.01600000000000000000, 0.2699999999999999600, 0.0000000000000000000 ) ) ;
#273 = DIRECTION ( 'NONE',  ( -1.000000000000000000, 0.0000000000000000000, 0.0000000000000000000 ) ) ;
#274 = VECTOR ( 'NONE', #273, 39.37007874015748100 ) ;
#275 = CARTESIAN_POINT ( 'NONE',  ( -0.01600000000000000000, 0.2699999999999999600, 0.0000000000000000000 ) ) ;
#276 = LINE ( 'NONE', #275, #274 ) ;
#277 = DIRECTION ( 'NONE',  ( -1.778546870875171200E-016, 1.000000000000000000, 0.0000000000000000000 ) ) ;
#278 = DIRECTION ( 'NONE',  ( 1.000000000000000000, 1.778546870875171200E-016, 0.0000000000000000000 ) ) ;
#279 = CARTESIAN_POINT ( 'NONE',  ( 0.01600000000000000400, 0.2580000000000000100, 0.02000000000000000000 ) ) ;
#280 = AXIS2_PLACEMENT_3D ( 'NONE', #279, #278, #277 ) ;
#281 = PLANE ( 'NONE',  #280 ) ;
#282 = DIRECTION ( 'NONE',  ( -1.000000000000000000, 0.0000000000000000000, 0.0000000000000000000 ) ) ;
#283 = VECTOR ( 'NONE', #282, 39.37007874015748100 ) ;
#284 = CARTESIAN_POINT ( 'NONE',  ( -0.01600000000000000000, 0.2699999999999999600, 0.02000000000000000000 ) ) ;
#285 = LINE ( 'NONE', #284, #283 ) ;
#286 = CARTESIAN_POINT ( 'NONE',  ( -0.01600000000000000000, 0.2699999999999999600, 0.02000000000000000000 ) ) ;
#287 = DIRECTION ( 'NONE',  ( 1.778546870875171200E-016, 1.000000000000000000, 0.0000000000000000000 ) ) ;
#288 = VECTOR ( 'NONE', #287, 39.37007874015748100 ) ;
#289 = CARTESIAN_POINT ( 'NONE',  ( -0.01600000000000000400, 0.2580000000000000100, 0.02000000000000000000 ) ) ;
#290 = LINE ( 'NONE', #289, #288 ) ;
#291 = CARTESIAN_POINT ( 'NONE',  ( -0.01600000000000000400, 0.2580000000000000100, 0.02000000000000000000 ) ) ;
#292 = DIRECTION ( 'NONE',  ( 1.000000000000000000, 0.0000000000000000000, 0.0000000000000000000 ) ) ;
#293 = DIRECTION ( 'NONE',  ( 0.0000000000000000000, 0.0000000000000000000, -1.000000000000000000 ) ) ;
#294 = CARTESIAN_POINT ( 'NONE',  ( 0.0000000000000000000, 0.2580000000000000100, 0.02000000000000000000 ) ) ;
#295 = AXIS2_PLACEMENT_3D ( 'NONE', #294, #293, #292 ) ;
#296 = CIRCLE ( 'NONE', #295, 0.01600000000000000400 ) ;
#297 = DIRECTION ( 'NONE',  ( 1.778546870875171200E-016, -1.000000000000000000, 0.0000000000000000000 ) ) ;
#298 = VECTOR ( 'NONE', #297, 39.37007874015748100 ) ;
#299 = CARTESIAN_POINT ( 'NONE',  ( 0.01600000000000000400, 0.2580000000000000100, 0.02000000000000000000 ) ) ;
#300 = LINE ( 'NONE', #299, #298 ) ;
#301 = CARTESIAN_POINT ( 'NONE',  ( 0.03750000000000001200, 0.1560000000000000000, 0.0000000000000000000 ) ) ;
#302 = DIRECTION ( 'NONE',  ( 1.000000000000000000, 0.0000000000000000000, 0.0000000000000000000 ) ) ;
#303 = DIRECTION ( 'NONE',  ( 0.0000000000000000000, 0.0000000000000000000, 1.000000000000000000 ) ) ;
#304 = AXIS2_PLACEMENT_3D ( 'NONE', #407, #406, #405 ) ;
#305 = VECTOR ( 'NONE', #399, 39.37007874015748100 ) ;
#306 = CARTESIAN_POINT ( 'NONE',  ( -0.03749999999999999900, 0.2699999999999999600, 0.0000000000000000000 ) ) ;
#307 = LINE ( 'NONE', #306, #305 ) ;
#308 = CARTESIAN_POINT ( 'NONE',  ( -0.03749999999999999900, 0.2699999999999999600, 0.0000000000000000000 ) ) ;
#309 = DIRECTION ( 'NONE',  ( -1.333910153156379100E-016, 1.000000000000000000, 0.0000000000000000000 ) ) ;
#310 = DIRECTION ( 'NONE',  ( 1.000000000000000000, 1.333910153156379100E-016, 0.0000000000000000000 ) ) ;
#311 = CARTESIAN_POINT ( 'NONE',  ( -0.01750000000000001600, 0.1560000000000000000, 0.02000000000000000000 ) ) ;
#312 = AXIS2_PLACEMENT_3D ( 'NONE', #311, #310, #309 ) ;
#313 = PLANE ( 'NONE',  #312 ) ;
#314 = FACE_OUTER_BOUND ( 'NONE', #98, .T. ) ;
#315 = DIRECTION ( 'NONE',  ( 0.0000000000000000000, 0.0000000000000000000, -1.000000000000000000 ) ) ;
#316 = VECTOR ( 'NONE', #315, 39.37007874015748100 ) ;
#317 = CARTESIAN_POINT ( 'NONE',  ( -0.01750000000000001600, 0.1560000000000000000, 0.02000000000000000000 ) ) ;
#318 = LINE ( 'NONE', #317, #316 ) ;
#319 = DIRECTION ( 'NONE',  ( 0.0000000000000000000, 0.0000000000000000000, 1.000000000000000000 ) ) ;
#320 = DIRECTION ( 'NONE',  ( 0.0000000000000000000, 1.000000000000000000, 0.0000000000000000000 ) ) ;
#321 = CARTESIAN_POINT ( 'NONE',  ( -0.03750000000000001200, 0.1560000000000000000, 0.02000000000000000000 ) ) ;
#322 = AXIS2_PLACEMENT_3D ( 'NONE', #321, #320, #319 ) ;
#323 = PLANE ( 'NONE',  #322 ) ;
#324 = FACE_OUTER_BOUND ( 'NONE', #91, .T. ) ;
#325 = DIRECTION ( 'NONE',  ( 0.0000000000000000000, 0.0000000000000000000, -1.000000000000000000 ) ) ;
#326 = VECTOR ( 'NONE', #325, 39.37007874015748100 ) ;
#327 = CARTESIAN_POINT ( 'NONE',  ( -0.03750000000000001200, 0.1560000000000000000, 0.02000000000000000000 ) ) ;
#328 = LINE ( 'NONE', #327, #326 ) ;
#329 = DIRECTION ( 'NONE',  ( -0.1218693434051475900, 0.9925461516413219800, 0.0000000000000000000 ) ) ;
#330 = DIRECTION ( 'NONE',  ( 0.9925461516413219800, 0.1218693434051475900, 0.0000000000000000000 ) ) ;
#331 = CARTESIAN_POINT ( 'NONE',  ( -0.01750000000000000200, 0.05999999999999999800, 0.02000000000000000000 ) ) ;
#332 = AXIS2_PLACEMENT_3D ( 'NONE', #331, #330, #329 ) ;
#333 = PLANE ( 'NONE',  #332 ) ;
#334 = FACE_OUTER_BOUND ( 'NONE', #81, .T. ) ;
#335 = CARTESIAN_POINT ( 'NONE',  ( 0.01600000000000000400, 0.2580000000000000100, 0.0000000000000000000 ) ) ;
#336 = CARTESIAN_POINT ( 'NONE',  ( -0.01600000000000000400, 0.2580000000000000100, 0.0000000000000000000 ) ) ;
#337 = CARTESIAN_POINT ( 'NONE',  ( 0.01600000000000000000, 0.2699999999999999600, 0.0000000000000000000 ) ) ;
#338 = LINE ( 'NONE', #264, #263 ) ;
#339 = DIRECTION ( 'NONE',  ( 1.778546870875171200E-016, -1.000000000000000000, 0.0000000000000000000 ) ) ;
#340 = VECTOR ( 'NONE', #339, 39.37007874015748100 ) ;
#341 = CARTESIAN_POINT ( 'NONE',  ( 0.01600000000000000400, 0.2580000000000000100, 0.0000000000000000000 ) ) ;
#342 = LINE ( 'NONE', #341, #340 ) ;
#343 = DIRECTION ( 'NONE',  ( 1.000000000000000000, 0.0000000000000000000, 0.0000000000000000000 ) ) ;
#344 = DIRECTION ( 'NONE',  ( 0.0000000000000000000, 0.0000000000000000000, -1.000000000000000000 ) ) ;
#345 = CARTESIAN_POINT ( 'NONE',  ( 0.0000000000000000000, 0.2580000000000000100, 0.0000000000000000000 ) ) ;
#346 = AXIS2_PLACEMENT_3D ( 'NONE', #345, #344, #343 ) ;
#347 = CIRCLE ( 'NONE', #346, 0.01600000000000000400 ) ;
#348 = DIRECTION ( 'NONE',  ( 0.0000000000000000000, 0.0000000000000000000, -1.000000000000000000 ) ) ;
#349 = VECTOR ( 'NONE', #348, 39.37007874015748100 ) ;
#350 = CARTESIAN_POINT ( 'NONE',  ( 0.01600000000000000000, 0.2699999999999999600, 0.02000000000000000000 ) ) ;
#351 = LINE ( 'NONE', #350, #349 ) ;
#352 = DIRECTION ( 'NONE',  ( 0.0000000000000000000, 0.0000000000000000000, -1.000000000000000000 ) ) ;
#353 = DIRECTION ( 'NONE',  ( 0.0000000000000000000, -1.000000000000000000, 0.0000000000000000000 ) ) ;
#354 = CARTESIAN_POINT ( 'NONE',  ( 0.01600000000000000000, 0.2699999999999999600, 0.02000000000000000000 ) ) ;
#355 = AXIS2_PLACEMENT_3D ( 'NONE', #354, #353, #352 ) ;
#356 = PLANE ( 'NONE',  #355 ) ;
#357 = FACE_OUTER_BOUND ( 'NONE', #26, .T. ) ;
#358 = DIRECTION ( 'NONE',  ( 1.000000000000000000, 0.0000000000000000000, 0.0000000000000000000 ) ) ;
#359 = VECTOR ( 'NONE', #358, 39.37007874015748100 ) ;
#360 = CARTESIAN_POINT ( 'NONE',  ( -0.03750000000000001200, 0.1560000000000000000, 0.02000000000000000000 ) ) ;
#361 = LINE ( 'NONE', #360, #359 ) ;
#362 = CARTESIAN_POINT ( 'NONE',  ( -0.03750000000000001200, 0.1560000000000000000, 0.02000000000000000000 ) ) ;
#363 = DIRECTION ( 'NONE',  ( -1.123292760552739800E-016, -1.000000000000000000, 0.0000000000000000000 ) ) ;
#364 = VECTOR ( 'NONE', #363, 39.37007874015748100 ) ;
#365 = CARTESIAN_POINT ( 'NONE',  ( -0.03749999999999999900, 0.2699999999999999600, 0.02000000000000000000 ) ) ;
#366 = LINE ( 'NONE', #365, #364 ) ;
#367 = CARTESIAN_POINT ( 'NONE',  ( -0.03749999999999999900, 0.2699999999999999600, 0.02000000000000000000 ) ) ;
#368 = DIRECTION ( 'NONE',  ( 0.1218693434051475600, 0.9925461516413219800, 0.0000000000000000000 ) ) ;
#369 = VECTOR ( 'NONE', #368, 39.37007874015748100 ) ;
#370 = CARTESIAN_POINT ( 'NONE',  ( 0.01750000000000000200, 0.05999999999999999800, 0.02000000000000000000 ) ) ;
#371 = LINE ( 'NONE', #370, #369 ) ;
#372 = LINE ( 'NONE', #248, #247 ) ;
#373 = CARTESIAN_POINT ( 'NONE',  ( 0.01600000000000000400, 0.2580000000000000100, 0.02000000000000000000 ) ) ;
#374 = CARTESIAN_POINT ( 'NONE',  ( 0.01600000000000000000, 0.2699999999999999600, 0.02000000000000000000 ) ) ;
#375 = DIRECTION ( 'NONE',  ( -1.000000000000000000, 0.0000000000000000000, 0.0000000000000000000 ) ) ;
#376 = VECTOR ( 'NONE', #375, 39.37007874015748100 ) ;
#377 = CARTESIAN_POINT ( 'NONE',  ( 0.01600000000000000000, 0.2699999999999999600, 0.02000000000000000000 ) ) ;
#378 = LINE ( 'NONE', #377, #376 ) ;
#379 = CARTESIAN_POINT ( 'NONE',  ( 0.03749999999999999900, 0.2699999999999999600, 0.02000000000000000000 ) ) ;
#380 = CARTESIAN_POINT ( 'NONE',  ( 0.03750000000000001200, 0.1560000000000000000, 0.02000000000000000000 ) ) ;
#381 = DIRECTION ( 'NONE',  ( -1.123292760552739800E-016, 1.000000000000000000, 0.0000000000000000000 ) ) ;
#382 = VECTOR ( 'NONE', #381, 39.37007874015748100 ) ;
#383 = CARTESIAN_POINT ( 'NONE',  ( 0.03749999999999999900, 0.2699999999999999600, 0.02000000000000000000 ) ) ;
#384 = LINE ( 'NONE', #383, #382 ) ;
#385 = DIRECTION ( 'NONE',  ( 0.0000000000000000000, 0.0000000000000000000, -1.000000000000000000 ) ) ;
#386 = VECTOR ( 'NONE', #385, 39.37007874015748100 ) ;
#387 = CARTESIAN_POINT ( 'NONE',  ( -0.01600000000000000400, 0.2580000000000000100, 0.02000000000000000000 ) ) ;
#388 = DIRECTION ( 'NONE',  ( -1.000000000000000000, 0.0000000000000000000, 0.0000000000000000000 ) ) ;
#389 = DIRECTION ( 'NONE',  ( 0.0000000000000000000, 0.0000000000000000000, -1.000000000000000000 ) ) ;
#390 = CARTESIAN_POINT ( 'NONE',  ( 0.0000000000000000000, 0.2580000000000000100, 0.02000000000000000000 ) ) ;
#391 = AXIS2_PLACEMENT_3D ( 'NONE', #390, #389, #388 ) ;
#392 = CYLINDRICAL_SURFACE ( 'NONE', #391, 0.01600000000000000400 ) ;
#393 = LINE ( 'NONE', #387, #386 ) ;
#394 = FACE_OUTER_BOUND ( 'NONE', #107, .T. ) ;
#395 = DIRECTION ( 'NONE',  ( 0.0000000000000000000, 0.0000000000000000000, -1.000000000000000000 ) ) ;
#396 = VECTOR ( 'NONE', #395, 39.37007874015748100 ) ;
#397 = CARTESIAN_POINT ( 'NONE',  ( 0.01600000000000000400, 0.2580000000000000100, 0.02000000000000000000 ) ) ;
#398 = LINE ( 'NONE', #397, #396 ) ;
#399 = DIRECTION ( 'NONE',  ( -1.123292760552739800E-016, -1.000000000000000000, 0.0000000000000000000 ) ) ;
#400 = CARTESIAN_POINT ( 'NONE',  ( 0.0000000000000000000, 0.2580000000000000100, 0.0000000000000000000 ) ) ;
#401 = AXIS2_PLACEMENT_3D ( 'NONE', #400, #303, #302 ) ;
#402 = PLANE ( 'NONE',  #401 ) ;
#403 = FACE_BOUND ( 'NONE', #45, .T. ) ;
#404 = FACE_OUTER_BOUND ( 'NONE', #8, .T. ) ;
#405 = DIRECTION ( 'NONE',  ( 1.000000000000000000, 0.0000000000000000000, 0.0000000000000000000 ) ) ;
#406 = DIRECTION ( 'NONE',  ( 0.0000000000000000000, 0.0000000000000000000, 1.000000000000000000 ) ) ;
#407 = CARTESIAN_POINT ( 'NONE',  ( 0.0000000000000000000, 0.1999999999999999800, 0.02000000000000000000 ) ) ;
#408 = DIRECTION ( 'NONE',  ( 1.778546870875171200E-016, 1.000000000000000000, 0.0000000000000000000 ) ) ;
#409 = VECTOR ( 'NONE', #408, 39.37007874015748100 ) ;
#410 = CARTESIAN_POINT ( 'NONE',  ( -0.01600000000000000400, 0.2580000000000000100, 0.0000000000000000000 ) ) ;
#411 = LINE ( 'NONE', #410, #409 ) ;
#412 = DIRECTION ( 'NONE',  ( 0.0000000000000000000, 0.0000000000000000000, -1.000000000000000000 ) ) ;
#413 = VECTOR ( 'NONE', #412, 39.37007874015748100 ) ;
#414 = CARTESIAN_POINT ( 'NONE',  ( 0.03749999999999999900, 0.2699999999999999600, 0.02000000000000000000 ) ) ;
#415 = LINE ( 'NONE', #414, #413 ) ;
#416 = DIRECTION ( 'NONE',  ( 1.123292760552739800E-016, -1.000000000000000000, 0.0000000000000000000 ) ) ;
#417 = DIRECTION ( 'NONE',  ( -1.000000000000000000, -1.123292760552739800E-016, 0.0000000000000000000 ) ) ;
#418 = CARTESIAN_POINT ( 'NONE',  ( 0.03749999999999999900, 0.2699999999999999600, 0.02000000000000000000 ) ) ;
#419 = AXIS2_PLACEMENT_3D ( 'NONE', #418, #417, #416 ) ;
#420 = PLANE ( 'NONE',  #419 ) ;
#421 = FACE_OUTER_BOUND ( 'NONE', #70, .T. ) ;
#422 = DIRECTION ( 'NONE',  ( 1.000000000000000000, 0.0000000000000000000, 0.0000000000000000000 ) ) ;
#423 = DIRECTION ( 'NONE',  ( 0.0000000000000000000, 0.0000000000000000000, 1.000000000000000000 ) ) ;
#424 = CARTESIAN_POINT ( 'NONE',  ( 0.0000000000000000000, 0.1999999999999999800, 0.0000000000000000000 ) ) ;
#425 = AXIS2_PLACEMENT_3D ( 'NONE', #424, #423, #422 ) ;
#426 = CIRCLE ( 'NONE', #425, 0.01600000000000000400 ) ;
#427 = DIRECTION ( 'NONE',  ( 0.0000000000000000000, 0.0000000000000000000, -1.000000000000000000 ) ) ;
#428 = VECTOR ( 'NONE', #427, 39.37007874015748100 ) ;
#429 = CARTESIAN_POINT ( 'NONE',  ( -0.01750000000000000200, 0.05999999999999999800, 0.02000000000000000000 ) ) ;
#430 = LINE ( 'NONE', #429, #428 ) ;
#431 = DIRECTION ( 'NONE',  ( 0.0000000000000000000, 0.0000000000000000000, -1.000000000000000000 ) ) ;
#432 = VECTOR ( 'NONE', #431, 39.37007874015748100 ) ;
#433 = CARTESIAN_POINT ( 'NONE',  ( -0.01600000000000000000, 0.2699999999999999600, 0.02000000000000000000 ) ) ;
#434 = LINE ( 'NONE', #433, #432 ) ;
#435 = FACE_OUTER_BOUND ( 'NONE', #48, .T. ) ;
#436 = DIRECTION ( 'NONE',  ( -1.000000000000000000, 0.0000000000000000000, 0.0000000000000000000 ) ) ;
#437 = VECTOR ( 'NONE', #436, 39.37007874015748100 ) ;
#438 = CARTESIAN_POINT ( 'NONE',  ( 0.01600000000000000000, 0.2699999999999999600, 0.0000000000000000000 ) ) ;
#439 = LINE ( 'NONE', #438, #437 ) ;
#440 = CARTESIAN_POINT ( 'NONE',  ( -0.03750000000000001200, 0.1560000000000000000, 0.0000000000000000000 ) ) ;
#441 = DIRECTION ( 'NONE',  ( 1.000000000000000000, 0.0000000000000000000, 0.0000000000000000000 ) ) ;
#442 = DIRECTION ( 'NONE',  ( 0.0000000000000000000, 0.0000000000000000000, 1.000000000000000000 ) ) ;
#443 = AXIS2_PLACEMENT_3D ( 'NONE', #449, #442, #441 ) ;
#444 = CIRCLE ( 'NONE', #443, 0.01600000000000000400 ) ;
#445 = DIRECTION ( 'NONE',  ( -1.000000000000000000, 0.0000000000000000000, 0.0000000000000000000 ) ) ;
#446 = DIRECTION ( 'NONE',  ( 0.0000000000000000000, 0.0000000000000000000, -1.000000000000000000 ) ) ;
#447 = AXIS2_PLACEMENT_3D ( 'NONE', #450, #446, #445 ) ;
#448 = CYLINDRICAL_SURFACE ( 'NONE', #447, 0.01600000000000000400 ) ;
#449 = CARTESIAN_POINT ( 'NONE',  ( 0.0000000000000000000, 0.1999999999999999800, 0.02000000000000000000 ) ) ;
#450 = CARTESIAN_POINT ( 'NONE',  ( 0.0000000000000000000, 0.1999999999999999800, 0.02000000000000000000 ) ) ;
#451 = FACE_OUTER_BOUND ( 'NONE', #40, .T. ) ;
#452 =( GEOMETRIC_REPRESENTATION_CONTEXT ( 3 ) GLOBAL_UNCERTAINTY_ASSIGNED_CONTEXT ( ( #453 ) ) GLOBAL_UNIT_ASSIGNED_CONTEXT ( ( #249, #455, #454 ) ) REPRESENTATION_CONTEXT ( 'NONE', 'WORKASPACE' ) );
#453 = UNCERTAINTY_MEASURE_WITH_UNIT (LENGTH_MEASURE( 1.000000000000000100E-005 ), #249, 'distance_accuracy_value', 'NONE');
#454 =( NAMED_UNIT ( * ) SI_UNIT ( $, .STERADIAN. ) SOLID_ANGLE_UNIT ( ) );
#455 =( NAMED_UNIT ( * ) PLANE_ANGLE_UNIT ( ) SI_UNIT ( $, .RADIAN. ) );
#456 = CIRCLE ( 'NONE', #304, 0.01600000000000000400 ) ;
#457 = CARTESIAN_POINT ( 'NONE',  ( -0.03749999999999999900, 0.2699999999999999600, 0.02000000000000000000 ) ) ;
#458 = LINE ( 'NONE', #457, #535 ) ;
#459 = DIRECTION ( 'NONE',  ( 0.0000000000000000000, 0.0000000000000000000, -1.000000000000000000 ) ) ;
#460 = DIRECTION ( 'NONE',  ( 0.0000000000000000000, -1.000000000000000000, 0.0000000000000000000 ) ) ;
#461 = CARTESIAN_POINT ( 'NONE',  ( -0.01600000000000000000, 0.2699999999999999600, 0.02000000000000000000 ) ) ;
#462 = AXIS2_PLACEMENT_3D ( 'NONE', #461, #460, #459 ) ;
#463 = PLANE ( 'NONE',  #462 ) ;
#464 = FACE_OUTER_BOUND ( 'NONE', #210, .T. ) ;
#465 = DIRECTION ( 'NONE',  ( 0.0000000000000000000, 0.0000000000000000000, 1.000000000000000000 ) ) ;
#466 = DIRECTION ( 'NONE',  ( 0.0000000000000000000, 1.000000000000000000, 0.0000000000000000000 ) ) ;
#467 = CARTESIAN_POINT ( 'NONE',  ( 0.01013292634582572100, 0.0000000000000000000, 0.02000000000000000000 ) ) ;
#468 = AXIS2_PLACEMENT_3D ( 'NONE', #467, #466, #465 ) ;
#469 = DIRECTION ( 'NONE',  ( 0.0000000000000000000, 0.0000000000000000000, 1.000000000000000000 ) ) ;
#470 = CARTESIAN_POINT ( 'NONE',  ( 0.0000000000000000000, 0.0000000000000000000, 0.0000000000000000000 ) ) ;
#471 = AXIS2_PLACEMENT_3D ( 'NONE', #470, #469, #550 ) ;
#472 = SHAPE_DEFINITION_REPRESENTATION ( #547, #473 ) ;
#473 = ADVANCED_BREP_SHAPE_REPRESENTATION ( '1031', ( #38, #471 ), #474 ) ;
#474 =( GEOMETRIC_REPRESENTATION_CONTEXT ( 3 ) GLOBAL_UNCERTAINTY_ASSIGNED_CONTEXT ( ( #475 ) ) GLOBAL_UNIT_ASSIGNED_CONTEXT ( ( #524, #477, #476 ) ) REPRESENTATION_CONTEXT ( 'NONE', 'WORKASPACE' ) );
#475 = UNCERTAINTY_MEASURE_WITH_UNIT (LENGTH_MEASURE( 1.000000000000000100E-005 ), #524, 'distance_accuracy_value', 'NONE');
#476 =( NAMED_UNIT ( * ) SI_UNIT ( $, .STERADIAN. ) SOLID_ANGLE_UNIT ( ) );
#477 =( NAMED_UNIT ( * ) PLANE_ANGLE_UNIT ( ) SI_UNIT ( $, .RADIAN. ) );
#478 = DIRECTION ( 'NONE',  ( -1.123292760552739800E-016, 1.000000000000000000, 0.0000000000000000000 ) ) ;
#479 = VECTOR ( 'NONE', #478, 39.37007874015748100 ) ;
#480 = CARTESIAN_POINT ( 'NONE',  ( 0.03749999999999999900, 0.2699999999999999600, 0.0000000000000000000 ) ) ;
#481 = DIRECTION ( 'NONE',  ( 0.0000000000000000000, 0.0000000000000000000, 1.000000000000000000 ) ) ;
#482 = DIRECTION ( 'NONE',  ( 0.0000000000000000000, 1.000000000000000000, 0.0000000000000000000 ) ) ;
#483 = CARTESIAN_POINT ( 'NONE',  ( 0.03750000000000001200, 0.1560000000000000000, 0.02000000000000000000 ) ) ;
#484 = AXIS2_PLACEMENT_3D ( 'NONE', #483, #482, #481 ) ;
#485 = PLANE ( 'NONE',  #484 ) ;
#486 = FACE_OUTER_BOUND ( 'NONE', #185, .T. ) ;
#487 = VECTOR ( 'NONE', #583, 39.37007874015748100 ) ;
#488 = PLANE ( 'NONE',  #468 ) ;
#489 = FACE_OUTER_BOUND ( 'NONE', #207, .T. ) ;
#490 = DIRECTION ( 'NONE',  ( 0.0000000000000000000, 0.0000000000000000000, -1.000000000000000000 ) ) ;
#491 = VECTOR ( 'NONE', #490, 39.37007874015748100 ) ;
#492 = CARTESIAN_POINT ( 'NONE',  ( -0.01013292634582572100, 0.0000000000000000000, 0.02000000000000000000 ) ) ;
#493 = LINE ( 'NONE', #492, #491 ) ;
#494 = DIRECTION ( 'NONE',  ( 0.0000000000000000000, 0.0000000000000000000, -1.000000000000000000 ) ) ;
#495 = VECTOR ( 'NONE', #494, 39.37007874015748100 ) ;
#496 = CARTESIAN_POINT ( 'NONE',  ( 0.03750000000000001200, 0.1560000000000000000, 0.02000000000000000000 ) ) ;
#497 = LINE ( 'NONE', #496, #495 ) ;
#498 = DIRECTION ( 'NONE',  ( 0.0000000000000000000, 0.0000000000000000000, -1.000000000000000000 ) ) ;
#499 = VECTOR ( 'NONE', #498, 39.37007874015748100 ) ;
#500 = CARTESIAN_POINT ( 'NONE',  ( 0.01013292634582572100, 0.0000000000000000000, 0.02000000000000000000 ) ) ;
#501 = LINE ( 'NONE', #500, #499 ) ;
#502 = DIRECTION ( 'NONE',  ( -0.1218693434051475900, -0.9925461516413219800, 0.0000000000000000000 ) ) ;
#503 = DIRECTION ( 'NONE',  ( -0.9925461516413219800, 0.1218693434051475900, 0.0000000000000000000 ) ) ;
#504 = CARTESIAN_POINT ( 'NONE',  ( 0.01750000000000000200, 0.05999999999999999800, 0.02000000000000000000 ) ) ;
#505 = AXIS2_PLACEMENT_3D ( 'NONE', #504, #503, #502 ) ;
#506 = PLANE ( 'NONE',  #505 ) ;
#507 = FACE_OUTER_BOUND ( 'NONE', #198, .T. ) ;
#508 = DIRECTION ( 'NONE',  ( 1.000000000000000000, 0.0000000000000000000, 0.0000000000000000000 ) ) ;
#509 = VECTOR ( 'NONE', #508, 39.37007874015748100 ) ;
#510 = CARTESIAN_POINT ( 'NONE',  ( 0.03750000000000001200, 0.1560000000000000000, 0.0000000000000000000 ) ) ;
#511 = LINE ( 'NONE', #510, #509 ) ;
#512 = DIRECTION ( 'NONE',  ( 0.1218693434051475600, 0.9925461516413219800, 0.0000000000000000000 ) ) ;
#513 = CARTESIAN_POINT ( 'NONE',  ( 0.01750000000000000200, 0.05999999999999999800, 0.0000000000000000000 ) ) ;
#514 = LINE ( 'NONE', #513, #523 ) ;
#515 = CARTESIAN_POINT ( 'NONE',  ( 0.01750000000000001600, 0.1560000000000000000, 0.0000000000000000000 ) ) ;
#516 = CARTESIAN_POINT ( 'NONE',  ( 0.03749999999999999900, 0.2699999999999999600, 0.0000000000000000000 ) ) ;
#517 = CARTESIAN_POINT ( 'NONE',  ( -0.01013292634582572100, 0.0000000000000000000, 0.0000000000000000000 ) ) ;
#518 = DIRECTION ( 'NONE',  ( 1.000000000000000000, 0.0000000000000000000, 0.0000000000000000000 ) ) ;
#519 = VECTOR ( 'NONE', #518, 39.37007874015748100 ) ;
#520 = CARTESIAN_POINT ( 'NONE',  ( 0.01013292634582572100, 0.0000000000000000000, 0.0000000000000000000 ) ) ;
#521 = LINE ( 'NONE', #520, #519 ) ;
#522 = CARTESIAN_POINT ( 'NONE',  ( 0.01013292634582572100, 0.0000000000000000000, 0.0000000000000000000 ) ) ;
#523 = VECTOR ( 'NONE', #512, 39.37007874015748100 ) ;
#524 =( CONVERSION_BASED_UNIT ( 'INCH', #525 ) LENGTH_UNIT ( ) NAMED_UNIT ( #526 ) );
#525 = LENGTH_MEASURE_WITH_UNIT ( LENGTH_MEASURE( 0.02539999999999999900 ), #527 );
#526 = DIMENSIONAL_EXPONENTS ( 1.000000000000000000, 0.0000000000000000000, 0.0000000000000000000, 0.0000000000000000000, 0.0000000000000000000, 0.0000000000000000000, 0.0000000000000000000 ) ;
#527 =( LENGTH_UNIT ( ) NAMED_UNIT ( * ) SI_UNIT ( $, .METRE. ) );
#528 = DIRECTION ( 'NONE',  ( 1.123292760552739800E-016, 1.000000000000000000, 0.0000000000000000000 ) ) ;
#529 = DIRECTION ( 'NONE',  ( 1.000000000000000000, -1.123292760552739800E-016, 0.0000000000000000000 ) ) ;
#530 = CARTESIAN_POINT ( 'NONE',  ( -0.03749999999999999900, 0.2699999999999999600, 0.02000000000000000000 ) ) ;
#531 = AXIS2_PLACEMENT_3D ( 'NONE', #530, #529, #528 ) ;
#532 = PLANE ( 'NONE',  #531 ) ;
#533 = FACE_OUTER_BOUND ( 'NONE', #84, .T. ) ;
#534 = DIRECTION ( 'NONE',  ( 0.0000000000000000000, 0.0000000000000000000, -1.000000000000000000 ) ) ;
#535 = VECTOR ( 'NONE', #534, 39.37007874015748100 ) ;
#536 = DIRECTION ( 'NONE',  ( -1.000000000000000000, 0.0000000000000000000, 0.0000000000000000000 ) ) ;
#537 = DIRECTION ( 'NONE',  ( 0.0000000000000000000, 0.0000000000000000000, -1.000000000000000000 ) ) ;
#538 = CARTESIAN_POINT ( 'NONE',  ( 0.0000000000000000000, 0.1999999999999999800, 0.02000000000000000000 ) ) ;
#539 = AXIS2_PLACEMENT_3D ( 'NONE', #538, #537, #536 ) ;
#540 = CYLINDRICAL_SURFACE ( 'NONE', #539, 0.01600000000000000400 ) ;
#541 = FACE_OUTER_BOUND ( 'NONE', #175, .T. ) ;
#542 = CARTESIAN_POINT ( 'NONE',  ( -0.01750000000000001600, 0.1560000000000000000, 0.0000000000000000000 ) ) ;
#543 = DIRECTION ( 'NONE',  ( 1.333910153156378900E-016, -1.000000000000000000, 0.0000000000000000000 ) ) ;
#544 = VECTOR ( 'NONE', #543, 39.37007874015748100 ) ;
#545 = CARTESIAN_POINT ( 'NONE',  ( -0.01750000000000001600, 0.1560000000000000000, 0.0000000000000000000 ) ) ;
#546 = LINE ( 'NONE', #545, #544 ) ;
#547 = PRODUCT_DEFINITION_SHAPE ( 'NONE', 'NONE',  #592 ) ;
#548 = PRODUCT_RELATED_PRODUCT_CATEGORY ( 'part', '', ( #596 ) ) ;
#549 = CARTESIAN_POINT ( 'NONE',  ( -0.01750000000000001600, 0.1560000000000000000, 0.02000000000000000000 ) ) ;
#550 = DIRECTION ( 'NONE',  ( 1.000000000000000000, 0.0000000000000000000, 0.0000000000000000000 ) ) ;
#551 = CARTESIAN_POINT ( 'NONE',  ( -0.01013292634582572100, 0.0000000000000000000, 0.02000000000000000000 ) ) ;
#552 = DIRECTION ( 'NONE',  ( 0.1218693434051475600, -0.9925461516413219800, 0.0000000000000000000 ) ) ;
#553 = LINE ( 'NONE', #480, #479 ) ;
#554 = CARTESIAN_POINT ( 'NONE',  ( 0.01750000000000000200, 0.05999999999999999800, 0.0000000000000000000 ) ) ;
#555 = DIRECTION ( 'NONE',  ( 1.333910153156378900E-016, 1.000000000000000000, 0.0000000000000000000 ) ) ;
#556 = VECTOR ( 'NONE', #555, 39.37007874015748100 ) ;
#557 = VECTOR ( 'NONE', #567, 39.37007874015748100 ) ;
#558 = CARTESIAN_POINT ( 'NONE',  ( 0.01013292634582572100, 0.0000000000000000000, 0.02000000000000000000 ) ) ;
#559 = LINE ( 'NONE', #558, #557 ) ;
#560 = CARTESIAN_POINT ( 'NONE',  ( -0.01750000000000000200, 0.05999999999999999800, 0.0000000000000000000 ) ) ;
#561 = DIRECTION ( 'NONE',  ( 0.1218693434051475600, -0.9925461516413219800, 0.0000000000000000000 ) ) ;
#562 = VECTOR ( 'NONE', #561, 39.37007874015748100 ) ;
#563 = CARTESIAN_POINT ( 'NONE',  ( -0.01750000000000000200, 0.05999999999999999800, 0.0000000000000000000 ) ) ;
#564 = LINE ( 'NONE', #563, #562 ) ;
#565 = CARTESIAN_POINT ( 'NONE',  ( 0.01750000000000000200, 0.05999999999999999800, 0.02000000000000000000 ) ) ;
#566 = CARTESIAN_POINT ( 'NONE',  ( 0.01013292634582572100, 0.0000000000000000000, 0.02000000000000000000 ) ) ;
#567 = DIRECTION ( 'NONE',  ( 1.000000000000000000, 0.0000000000000000000, 0.0000000000000000000 ) ) ;
#568 = FACE_OUTER_BOUND ( 'NONE', #178, .T. ) ;
#569 = DIRECTION ( 'NONE',  ( 0.0000000000000000000, 0.0000000000000000000, -1.000000000000000000 ) ) ;
#570 = VECTOR ( 'NONE', #569, 39.37007874015748100 ) ;
#571 = CARTESIAN_POINT ( 'NONE',  ( 0.01750000000000000200, 0.05999999999999999800, 0.02000000000000000000 ) ) ;
#572 = LINE ( 'NONE', #571, #570 ) ;
#573 = VECTOR ( 'NONE', #552, 39.37007874015748100 ) ;
#574 = CARTESIAN_POINT ( 'NONE',  ( -0.01750000000000000200, 0.05999999999999999800, 0.02000000000000000000 ) ) ;
#575 = CARTESIAN_POINT ( 'NONE',  ( -0.01750000000000000200, 0.05999999999999999800, 0.02000000000000000000 ) ) ;
#576 = DIRECTION ( 'NONE',  ( 1.333910153156378900E-016, -1.000000000000000000, 0.0000000000000000000 ) ) ;
#577 = LINE ( 'NONE', #579, #578 ) ;
#578 = VECTOR ( 'NONE', #576, 39.37007874015748100 ) ;
#579 = CARTESIAN_POINT ( 'NONE',  ( -0.01750000000000001600, 0.1560000000000000000, 0.02000000000000000000 ) ) ;
#580 = LINE ( 'NONE', #574, #573 ) ;
#581 = CARTESIAN_POINT ( 'NONE',  ( 0.01750000000000001600, 0.1560000000000000000, 0.0000000000000000000 ) ) ;
#582 = LINE ( 'NONE', #581, #556 ) ;
#583 = DIRECTION ( 'NONE',  ( 0.0000000000000000000, 0.0000000000000000000, -1.000000000000000000 ) ) ;
#584 = CARTESIAN_POINT ( 'NONE',  ( 0.01750000000000001600, 0.1560000000000000000, 0.02000000000000000000 ) ) ;
#585 = LINE ( 'NONE', #584, #487 ) ;
#586 = DIRECTION ( 'NONE',  ( -1.333910153156379100E-016, -1.000000000000000000, 0.0000000000000000000 ) ) ;
#587 = DIRECTION ( 'NONE',  ( -1.000000000000000000, 1.333910153156379100E-016, 0.0000000000000000000 ) ) ;
#588 = CARTESIAN_POINT ( 'NONE',  ( 0.01750000000000001600, 0.1560000000000000000, 0.02000000000000000000 ) ) ;
#589 = AXIS2_PLACEMENT_3D ( 'NONE', #588, #587, #586 ) ;
#590 = PLANE ( 'NONE',  #589 ) ;
#591 = PRODUCT_DEFINITION_FORMATION_WITH_SPECIFIED_SOURCE ( 'ANY', '', #596, .NOT_KNOWN. ) ;
#592 = PRODUCT_DEFINITION ( 'UNKNOWN', '', #591, #593 ) ;
#593 = PRODUCT_DEFINITION_CONTEXT ( 'detailed design', #595, 'design' ) ;
#594 = APPLICATION_PROTOCOL_DEFINITION ( 'draft international standard', 'automotive_design', 1998, #595 ) ;
#595 = APPLICATION_CONTEXT ( 'automotive_design' ) ;
#596 = PRODUCT ( '1031', '1031', '', ( #597 ) ) ;
#597 = PRODUCT_CONTEXT ( 'NONE', #599, 'mechanical' ) ;
#598 = APPLICATION_PROTOCOL_DEFINITION ( 'draft international standard', 'automotive_design', 1998, #599 ) ;
#599 = APPLICATION_CONTEXT ( 'automotive_design' ) ;
ENDSEC;
END-ISO-10303-21;
